<svg width="280" height="280" viewBox="0 0 280 280" fill="none" xmlns="http://www.w3.org/2000/svg">
<rect width="280" height="280" fill="white"/>
<path d="M183.801 110.757C179.664 110.757 175.525 110.679 171.391 110.777C165.78 110.909 161.589 115.143 161.561 120.548C161.535 125.959 165.648 130.321 171.284 130.424C179.656 130.575 188.035 130.584 196.405 130.423C202.145 130.312 206.072 126.065 206.023 120.508C205.973 114.965 201.936 110.897 196.212 110.772C192.077 110.681 187.939 110.755 183.801 110.757Z" fill="#FBB331"/>
<path d="M210.108 108.017C210.108 112.355 210.024 116.697 210.129 121.033C210.258 126.386 214.346 130.219 219.726 130.213C225.01 130.206 229.249 126.269 229.321 120.978C229.434 112.503 229.428 104.025 229.324 95.5499C229.258 90.1565 224.861 86.0672 219.513 86.1405C214.328 86.2112 210.22 90.2899 210.116 95.6045C210.034 99.7405 210.1 103.879 210.108 108.017Z" fill="#EE3565"/>
<path d="M205.955 99.292C205.955 97.7814 206.069 96.2614 205.935 94.7627C205.471 89.6494 201.34 85.9867 196.156 86C191.176 86.0107 186.884 89.756 186.403 94.512C185.853 99.9307 189.017 104.511 194.127 105.453C195.892 105.779 197.732 105.779 199.539 105.789C206.047 105.827 206.047 105.804 205.955 99.292Z" fill="#6291CB"/>
<path d="M239.447 130.199C240.755 130.199 242.067 130.258 243.371 130.188C248.223 129.928 252.155 125.83 252.346 120.878C252.527 116.242 248.805 111.722 244.227 111.019C239.411 110.282 234.541 113.143 233.401 117.668C232.919 119.583 232.979 121.66 232.963 123.664C232.909 130.232 232.939 130.232 239.447 130.199Z" fill="#51C1B8"/>
<path d="M233.798 106.661C233.798 106.661 235.506 91.2331 243.497 94.3811C243.497 94.3811 250.354 102.156 233.798 106.661Z" fill="#90C84B"/>
<path d="M34.36 146.849C34.36 162.963 42.4467 170.651 56.348 170.651C70.2493 170.651 78.336 162.963 78.336 146.849C78.336 130.651 70.2493 122.965 56.348 122.965C42.4467 122.965 34.36 130.651 34.36 146.849ZM28 146.849C28 127.263 38.7213 117.842 56.348 117.842C73.9747 117.842 84.6973 127.263 84.6973 146.849C84.6973 166.27 73.9747 175.773 56.348 175.773C38.7213 175.773 28 166.27 28 146.849Z" fill="#373535"/>
<path d="M34.36 146.849C34.36 162.963 42.4467 170.651 56.348 170.651C70.2493 170.651 78.336 162.963 78.336 146.849C78.336 130.651 70.2493 122.965 56.348 122.965C42.4467 122.965 34.36 130.651 34.36 146.849ZM28 146.849C28 127.263 38.7213 117.842 56.348 117.842C73.9747 117.842 84.6973 127.263 84.6973 146.849C84.6973 166.27 73.9747 175.773 56.348 175.773C38.7213 175.773 28 166.27 28 146.849Z" stroke="#373535" stroke-width="2.66667" stroke-miterlimit="10"/>
<path d="M105.965 142.056V172.633C105.965 174.12 104.693 175.278 103.057 175.278C101.422 175.278 100.15 174.12 100.15 172.633V142.056H97.0607C95.5153 142.056 94.334 140.981 94.334 139.576C94.334 138.172 95.5153 137.097 97.0607 137.097H100.15V132.221C100.15 124.784 104.783 118.006 115.869 118.006C117.413 118.006 118.594 119.081 118.594 120.486C118.594 121.89 117.413 122.965 115.869 122.965C108.781 122.965 105.965 126.849 105.965 132.221V137.097H124.409V132.221C124.409 124.784 129.043 118.006 140.129 118.006C144.126 118.006 148.125 118.998 149.759 119.825C150.85 120.404 151.395 121.146 151.395 122.138C151.395 123.544 150.214 124.618 148.669 124.618C148.125 124.618 147.489 124.37 146.761 124.122C144.762 123.461 143.127 122.965 140.129 122.965C133.041 122.965 130.225 126.849 130.225 132.221V137.097H150.759C152.394 137.097 153.666 138.254 153.666 139.741V172.633C153.666 174.12 152.394 175.278 150.759 175.278C149.123 175.278 147.851 174.12 147.851 172.633V142.056H130.225V172.633C130.225 174.12 128.953 175.278 127.317 175.278C125.682 175.278 124.409 174.12 124.409 172.633V142.056H105.965Z" fill="#373535"/>
<path d="M105.965 142.056V172.633C105.965 174.12 104.693 175.278 103.057 175.278C101.422 175.278 100.15 174.12 100.15 172.633V142.056H97.0607C95.5153 142.056 94.334 140.981 94.334 139.576C94.334 138.172 95.5153 137.097 97.0607 137.097H100.15V132.221C100.15 124.784 104.783 118.006 115.869 118.006C117.413 118.006 118.594 119.081 118.594 120.486C118.594 121.89 117.413 122.965 115.869 122.965C108.781 122.965 105.965 126.849 105.965 132.221V137.097H124.409V132.221C124.409 124.784 129.043 118.006 140.129 118.006C144.126 118.006 148.125 118.998 149.759 119.825C150.85 120.404 151.395 121.146 151.395 122.138C151.395 123.544 150.214 124.618 148.669 124.618C148.125 124.618 147.489 124.37 146.761 124.122C144.762 123.461 143.127 122.965 140.129 122.965C133.041 122.965 130.225 126.849 130.225 132.221V137.097H150.759C152.394 137.097 153.666 138.254 153.666 139.741V172.633C153.666 174.12 152.394 175.278 150.759 175.278C149.123 175.278 147.851 174.12 147.851 172.633V142.056H130.225V172.633C130.225 174.12 128.953 175.278 127.317 175.278C125.682 175.278 124.409 174.12 124.409 172.633V142.056H105.965Z" stroke="#373535" stroke-width="2.66667" stroke-miterlimit="10"/>
<path d="M185.202 135.94C193.288 135.94 197.74 139.824 199.194 141.642C199.648 142.22 199.83 142.634 199.83 143.213C199.83 144.617 198.648 145.609 197.195 145.609C196.286 145.609 195.65 145.278 195.014 144.617C193.651 143.213 191.199 140.733 185.202 140.733C176.842 140.733 172.39 145.609 172.39 155.773C172.39 166.104 176.842 170.898 185.202 170.898C190.471 170.898 193.651 168.749 195.742 167.344C196.378 166.929 196.832 166.765 197.467 166.765C198.922 166.765 200.103 167.841 200.103 169.161C200.103 169.906 199.83 170.484 198.922 171.229C196.923 172.716 192.562 175.689 185.202 175.689C173.48 175.689 166.484 169.328 166.484 155.773C166.484 142.22 173.48 135.94 185.202 135.94Z" fill="#373535"/>
<path d="M185.202 135.94C193.288 135.94 197.74 139.824 199.194 141.642C199.648 142.22 199.83 142.634 199.83 143.213C199.83 144.617 198.648 145.609 197.195 145.609C196.286 145.609 195.65 145.278 195.014 144.617C193.651 143.213 191.199 140.733 185.202 140.733C176.842 140.733 172.39 145.609 172.39 155.773C172.39 166.104 176.842 170.898 185.202 170.898C190.471 170.898 193.651 168.749 195.742 167.344C196.378 166.929 196.832 166.765 197.467 166.765C198.922 166.765 200.103 167.841 200.103 169.161C200.103 169.906 199.83 170.484 198.922 171.229C196.923 172.716 192.562 175.689 185.202 175.689C173.48 175.689 166.484 169.328 166.484 155.773C166.484 142.22 173.48 135.94 185.202 135.94Z" stroke="#373535" stroke-width="2.66667" stroke-miterlimit="10"/>
<path d="M229.001 140.733C221.095 140.733 216.734 145.361 216.189 152.716H240.631C240.631 146.765 238.359 140.733 229.001 140.733ZM229.001 135.94C243.538 135.94 246.355 146.435 246.355 152.055C246.355 154.452 246.355 157.344 242.721 157.344H216.189C216.189 165.525 221.367 170.815 229.909 170.815C235.179 170.815 238.269 168.997 240.813 167.26C241.358 166.929 241.721 166.765 242.447 166.765C243.902 166.765 245.083 167.841 245.083 169.161C245.083 170.069 244.629 170.567 244.083 171.063C242.721 172.301 237.995 175.689 229.909 175.689C217.825 175.689 210.283 169.659 210.283 155.773C210.283 143.047 217.189 135.94 229.001 135.94" fill="#373535"/>
<path d="M229.001 140.733C221.095 140.733 216.734 145.361 216.189 152.716H240.631C240.631 146.765 238.359 140.733 229.001 140.733ZM229.001 135.94C243.538 135.94 246.355 146.435 246.355 152.055C246.355 154.452 246.355 157.344 242.721 157.344H216.189C216.189 165.525 221.367 170.815 229.909 170.815C235.179 170.815 238.269 168.997 240.813 167.26C241.358 166.929 241.721 166.765 242.447 166.765C243.902 166.765 245.083 167.841 245.083 169.161C245.083 170.069 244.629 170.567 244.083 171.063C242.721 172.301 237.995 175.689 229.909 175.689C217.825 175.689 210.283 169.659 210.283 155.773C210.283 143.047 217.189 135.94 229.001 135.94V135.94Z" stroke="#373535" stroke-width="2.66667" stroke-miterlimit="10"/>
<path d="M187.571 192.716C186.691 193.542 185.68 193.956 184.536 193.956C183.843 193.956 183.197 193.825 182.601 193.562C182.005 193.3 181.488 192.946 181.047 192.502C180.608 192.058 180.264 191.542 180.015 190.956C179.765 190.369 179.64 189.756 179.64 189.116C179.64 188.476 179.765 187.866 180.015 187.289C180.264 186.712 180.608 186.204 181.047 185.769C181.488 185.333 182.011 184.989 182.616 184.736C183.221 184.482 183.881 184.354 184.595 184.354C185.592 184.354 186.428 184.545 187.101 184.922C187.776 185.3 188.284 185.8 188.627 186.422L187.365 187.248C187.081 186.734 186.691 186.348 186.193 186.089C185.695 185.832 185.147 185.702 184.551 185.702C184.063 185.702 183.617 185.798 183.217 185.989C182.816 186.181 182.475 186.433 182.191 186.748C181.907 187.065 181.689 187.43 181.539 187.849C181.387 188.266 181.312 188.702 181.312 189.156C181.312 189.634 181.397 190.084 181.568 190.502C181.739 190.92 181.973 191.285 182.271 191.596C182.569 191.908 182.924 192.153 183.335 192.336C183.744 192.518 184.189 192.609 184.668 192.609C185.196 192.609 185.701 192.498 186.185 192.276C186.669 192.053 187.131 191.702 187.571 191.222V190.209H185.387V189.102H188.949V193.889H187.571V192.716Z" fill="#373535"/>
<path d="M193.346 189.276H196.22C196.454 189.276 196.666 189.229 196.857 189.136C197.048 189.042 197.212 188.914 197.348 188.748C197.485 188.584 197.593 188.396 197.672 188.182C197.749 187.969 197.789 187.742 197.789 187.502C197.789 187.262 197.741 187.036 197.649 186.822C197.556 186.609 197.434 186.422 197.282 186.262C197.13 186.102 196.956 185.976 196.754 185.882C196.554 185.789 196.346 185.742 196.132 185.742H193.346V189.276ZM191.705 193.889V184.422H196.234C196.704 184.422 197.136 184.512 197.532 184.689C197.928 184.866 198.266 185.1 198.55 185.389C198.834 185.678 199.056 186.008 199.217 186.376C199.378 186.745 199.46 187.121 199.46 187.502C199.46 187.822 199.41 188.129 199.313 188.422C199.214 188.716 199.078 188.986 198.902 189.236C198.726 189.484 198.512 189.7 198.257 189.882C198.004 190.065 197.725 190.2 197.422 190.289L199.87 193.889H198.009L195.75 190.596H193.346V193.889H191.705Z" fill="#373535"/>
<path d="M207.566 190.209L205.896 186.143L204.165 190.209H207.566ZM205.177 184.423H206.613L210.718 193.889H208.988L207.889 191.316H203.872L202.788 193.889H201.042L205.177 184.423Z" fill="#373535"/>
<path d="M212.887 193.889V184.422H219.822V185.742H214.529V188.569H218.957V189.809H214.529V193.889H212.887Z" fill="#373535"/>
<path d="M222.254 184.423H223.896V193.89H222.254V184.423Z" fill="#373535"/>
<path d="M226.461 189.089C226.461 188.52 226.573 187.953 226.799 187.389C227.023 186.825 227.353 186.317 227.788 185.869C228.223 185.42 228.753 185.059 229.379 184.783C230.004 184.507 230.712 184.369 231.504 184.369C232.452 184.369 233.264 184.561 233.937 184.943C234.612 185.325 235.12 185.823 235.461 186.436L234.172 187.223C234.025 186.939 233.851 186.697 233.644 186.503C233.439 186.307 233.215 186.151 232.971 186.036C232.725 185.92 232.472 185.839 232.208 185.788C231.944 185.74 231.689 185.716 231.445 185.716C230.899 185.716 230.42 185.816 230.009 186.015C229.599 186.216 229.255 186.48 228.976 186.809C228.697 187.137 228.487 187.507 228.345 187.915C228.204 188.325 228.132 188.733 228.132 189.143C228.132 189.605 228.215 190.045 228.381 190.461C228.548 190.88 228.78 191.248 229.077 191.568C229.376 191.889 229.731 192.144 230.141 192.336C230.551 192.527 231.001 192.621 231.489 192.621C231.743 192.621 232.005 192.593 232.273 192.536C232.543 192.477 232.801 192.385 233.051 192.256C233.3 192.127 233.529 191.964 233.74 191.769C233.949 191.573 234.124 191.339 234.26 191.061L235.624 191.769C235.457 192.124 235.223 192.439 234.92 192.709C234.617 192.98 234.275 193.209 233.893 193.395C233.513 193.581 233.109 193.725 232.684 193.823C232.259 193.92 231.841 193.968 231.431 193.968C230.697 193.968 230.028 193.827 229.423 193.543C228.817 193.257 228.295 192.887 227.853 192.429C227.415 191.971 227.072 191.451 226.828 190.869C226.584 190.287 226.461 189.693 226.461 189.089Z" fill="#373535"/>
<path d="M244.184 186.649C244.087 186.552 243.944 186.447 243.759 186.336C243.574 186.225 243.356 186.121 243.107 186.021C242.858 185.924 242.584 185.844 242.286 185.783C241.988 185.72 241.683 185.688 241.37 185.688C240.676 185.688 240.166 185.804 239.838 186.036C239.511 186.267 239.347 186.587 239.347 186.996C239.347 187.228 239.399 187.415 239.5 187.563C239.603 187.709 239.763 187.839 239.978 187.949C240.192 188.061 240.462 188.159 240.783 188.241C241.106 188.327 241.483 188.417 241.912 188.515C242.44 188.631 242.916 188.76 243.342 188.901C243.767 189.045 244.126 189.219 244.419 189.423C244.712 189.627 244.939 189.879 245.1 190.176C245.262 190.473 245.343 190.836 245.343 191.263C245.343 191.741 245.242 192.156 245.043 192.503C244.842 192.848 244.568 193.131 244.222 193.348C243.875 193.567 243.471 193.728 243.012 193.829C242.552 193.931 242.059 193.983 241.531 193.983C240.74 193.983 239.975 193.873 239.238 193.656C238.499 193.439 237.832 193.121 237.236 192.703L237.984 191.423C238.111 191.537 238.294 191.667 238.534 191.809C238.772 191.952 239.051 192.081 239.37 192.203C239.686 192.323 240.031 192.424 240.403 192.509C240.774 192.593 241.159 192.635 241.56 192.635C242.206 192.635 242.704 192.533 243.056 192.329C243.407 192.124 243.583 191.823 243.583 191.423C243.583 191.181 243.518 190.983 243.386 190.823C243.254 190.663 243.066 190.521 242.822 190.401C242.576 190.283 242.279 190.175 241.927 190.075C241.575 189.977 241.175 189.876 240.724 189.769C240.207 189.644 239.755 189.513 239.37 189.376C238.983 189.237 238.663 189.071 238.408 188.876C238.155 188.68 237.962 188.452 237.83 188.188C237.698 187.927 237.631 187.609 237.631 187.235C237.631 186.773 237.73 186.363 237.926 186.003C238.12 185.643 238.387 185.341 238.724 185.096C239.062 184.851 239.459 184.667 239.919 184.543C240.378 184.417 240.876 184.355 241.414 184.355C242.118 184.355 242.768 184.457 243.363 184.663C243.96 184.867 244.483 185.121 244.932 185.423L244.184 186.649Z" fill="#373535"/>
</svg>
